<svg width="141" height="36" viewBox="0 0 141 36" fill="none" xmlns="http://www.w3.org/2000/svg">
<path fill-rule="evenodd" clip-rule="evenodd" d="M57.2951 7.79233C56.424 7.12681 55.3824 6.79406 54.1704 6.79406C52.8638 6.79406 51.6944 7.18992 50.6623 7.98165C49.6302 8.77339 48.8159 9.90934 48.2194 11.3895C47.6229 12.8697 47.3246 14.6196 47.3246 16.6391C47.3246 18.6356 47.6229 20.3797 48.2194 21.8714C48.8159 23.363 49.6302 24.5047 50.6623 25.2965C51.6944 26.0882 52.8638 26.4841 54.1704 26.4841C55.3824 26.4841 56.424 26.1513 57.2951 25.4858C58.1662 24.8203 58.8006 23.9138 59.1983 22.7664V26.2431H64.0557V0.77002H59.1983V10.5117C58.8006 9.36431 58.1662 8.45784 57.2951 7.79233ZM4.91405 26.2433V17.7063H7.92507C9.49687 17.7063 10.8319 17.3678 11.9303 16.6909C13.0287 16.0139 13.8572 15.0845 14.4158 13.9026C14.9745 12.7207 15.2538 11.3725 15.2538 9.85788C15.2538 7.4253 14.6289 5.49189 13.379 4.05759C12.1291 2.62329 10.3112 1.90615 7.92507 1.90615H0.0566406V26.2433H4.91405ZM10.3118 9.85759C10.3118 11.9459 9.33653 12.9901 7.38598 12.9901H4.91467V6.65624H7.38598C9.33653 6.65624 10.3118 7.72334 10.3118 9.85759ZM22.4979 10.6496C23.1039 9.47925 23.8851 8.54984 24.8414 7.86137C25.7978 7.17291 26.8346 6.82868 27.9519 6.82868V13.1281H26.56C25.2722 13.1281 24.2733 13.4609 23.5631 14.1264C22.853 14.7919 22.4979 15.9164 22.4979 17.4998V26.2433H17.6405V7.03522H22.4979V10.6496ZM41.6293 7.98158C40.3889 7.18984 38.9829 6.79398 37.4111 6.79398C35.8393 6.79398 34.4284 7.18984 33.1786 7.98158C31.9287 8.77331 30.9487 9.915 30.2386 11.4067C29.5284 12.8983 29.1733 14.6424 29.1733 16.639C29.1733 18.6355 29.5284 20.3796 30.2386 21.8713C30.9487 23.363 31.9287 24.5046 33.1786 25.2964C34.4284 26.0881 35.8393 26.484 37.4111 26.484C38.9829 26.484 40.3889 26.0881 41.6293 25.2964C42.8697 24.5046 43.845 23.363 44.5551 21.8713C45.2653 20.3796 45.6204 18.6355 45.6204 16.639C45.6204 14.6424 45.2653 12.8983 44.5551 11.4067C43.845 9.915 42.8697 8.77331 41.6293 7.98158ZM37.411 11.8887C36.4831 11.8887 35.7019 12.296 35.0675 13.1107C34.4331 13.9254 34.1159 15.1015 34.1159 16.6391C34.1159 18.1767 34.4331 19.347 35.0675 20.1502C35.7019 20.9534 36.4831 21.355 37.411 21.355C38.3389 21.355 39.1153 20.9534 39.7403 20.1502C40.3652 19.347 40.6777 18.1767 40.6777 16.6391C40.6777 15.1015 40.3652 13.9254 39.7403 13.1107C39.1153 12.296 38.3389 11.8887 37.411 11.8887ZM55.7328 11.9578C54.6913 11.9578 53.8533 12.3709 53.2189 13.1971C52.5845 14.0232 52.2673 15.1706 52.2673 16.6394C52.2673 18.1081 52.5845 19.2555 53.2189 20.0817C53.8533 20.9078 54.6913 21.3209 55.7328 21.3209C56.7554 21.3209 57.5934 20.8964 58.2467 20.0472C58.9001 19.1981 59.2267 18.0622 59.2267 16.6394C59.2267 15.1936 58.9001 14.0519 58.2467 13.2143C57.5934 12.3766 56.7554 11.9578 55.7328 11.9578ZM83.1728 26.2431V7.03504H78.287V17.2243C78.287 18.6241 78.003 19.7027 77.4349 20.46C76.8667 21.2173 76.0903 21.596 75.1056 21.596C74.1587 21.596 73.406 21.2346 72.8473 20.5117C72.2887 19.7888 72.0093 18.7733 72.0093 17.4652V7.03504H67.1803V18.1881C67.1803 20.7584 67.7153 22.7778 68.7853 24.2466C69.8552 25.7153 71.2992 26.4496 73.1172 26.4496C74.3102 26.4496 75.3565 26.1169 76.256 25.4514C77.1555 24.7859 77.8325 23.8909 78.287 22.7664V26.2431H83.1728ZM93.683 6.79398C95.7283 6.79398 97.4421 7.4767 98.8245 8.84216C100.207 10.2076 101.078 12.0836 101.438 14.4703H96.2964C96.1449 13.6442 95.8324 13.0016 95.359 12.5426C94.8856 12.0837 94.289 11.8542 93.5694 11.8542C92.7173 11.8542 92.0166 12.2615 91.4674 13.0762C90.9182 13.8909 90.6436 15.0785 90.6436 16.639C90.6436 18.1995 90.9182 19.3871 91.4674 20.2018C92.0166 21.0165 92.7173 21.4238 93.5694 21.4238C94.289 21.4238 94.8856 21.1943 95.359 20.7353C95.8324 20.2763 96.1449 19.6338 96.2964 18.8076H101.438C101.078 21.1943 100.207 23.0703 98.8245 24.4358C97.4421 25.8013 95.7283 26.484 93.683 26.484C92.1302 26.484 90.7525 26.0881 89.55 25.2964C88.3475 24.5046 87.4054 23.363 86.7236 21.8713C86.0419 20.3796 85.701 18.6355 85.701 16.639C85.701 14.6195 86.0371 12.8697 86.7094 11.3895C87.3817 9.90926 88.3238 8.77331 89.5358 7.98158C90.7478 7.18984 92.1302 6.79398 93.683 6.79398ZM112.942 26.2429V21.1827H111.408C110.802 21.1827 110.371 21.0335 110.116 20.7352C109.86 20.4369 109.732 19.9091 109.732 19.1517V11.9917H112.914V7.03482H109.732V2.31886H104.875V7.03482H102.745V11.9917H104.875V19.0485C104.875 21.6187 105.391 23.4604 106.423 24.5734C107.455 25.6864 108.899 26.2429 110.755 26.2429H112.942ZM120.527 0.77002V26.2431H115.669V0.77002H120.527ZM131.349 18.8077L127.543 7.03504H122.117L128.764 25.5202L125.043 35.3996H130.383L140.269 7.03504H134.9L131.349 18.8077Z" fill="#173A56"/>
</svg>
